<?xml version="1.0" standalone="no"?>
<!DOCTYPE svg PUBLIC "-//W3C//DTD SVG 20010904//EN"
 "http://www.w3.org/TR/2001/REC-SVG-20010904/DTD/svg10.dtd">
<svg version="1.0" xmlns="http://www.w3.org/2000/svg"
 width="1000.000000pt" height="1000.000000pt" viewBox="0 0 1000.000000 1000.000000"
 preserveAspectRatio="xMidYMid meet">
<metadata>
Created by potrace 1.11, written by Peter Selinger 2001-2013
</metadata>
<g transform="translate(0.000000,1000.000000) scale(0.100000,-0.100000)"
fill="#000000" stroke="none">
<path d="M6206 9486 c4 -11 1 -16 -11 -16 -11 0 -15 -5 -12 -14 8 -20 -28 -23
-153 -14 -103 7 -289 -5 -333 -21 -26 -9 -185 -7 -209 4 -9 4 -42 -1 -73 -10
-45 -13 -64 -14 -90 -5 -19 6 -35 16 -37 21 -2 6 -44 4 -113 -4 -61 -8 -157
-13 -215 -12 -656 15 -940 24 -962 30 -17 4 -28 3 -28 -3 0 -14 -179 -6 -196
9 -9 7 -66 10 -173 8 -87 -2 -155 -1 -149 2 6 4 -15 10 -45 13 -61 8 -115 -8
-138 -42 -12 -16 -25 -19 -84 -18 -38 0 -82 -3 -96 -7 -19 -6 -31 -4 -43 9
-16 15 -35 16 -204 9 -103 -4 -240 -6 -305 -5 -74 1 -117 -2 -117 -8 0 -6 -13
-13 -29 -17 -49 -11 -58 -31 -66 -150 -13 -193 -14 -354 -1 -352 7 1 10 -20 9
-63 -1 -36 -4 -117 -6 -180 -3 -98 -8 -129 -36 -210 -19 -52 -37 -96 -42 -98
-18 -7 -9 -51 11 -57 11 -3 20 -12 20 -20 0 -7 3 -21 6 -30 5 -11 0 -18 -14
-22 -30 -7 -35 -60 -17 -183 8 -58 15 -136 15 -173 0 -50 4 -73 16 -85 13 -13
15 -27 9 -76 -13 -103 -14 -335 -3 -451 13 -126 13 -179 3 -253 -4 -30 -2
-121 4 -205 10 -116 10 -159 1 -182 -19 -49 -22 -368 -4 -444 10 -44 11 -68 4
-75 -15 -15 -12 -258 4 -341 8 -38 11 -74 6 -80 -13 -18 -20 -134 -32 -535
-16 -567 -16 -599 4 -645 9 -22 20 -62 24 -90 5 -38 8 -45 13 -27 6 24 6 24
28 -7 23 -30 23 -40 7 -119 -3 -13 -9 -20 -14 -17 -5 3 -7 12 -3 20 3 8 1 15
-5 15 -18 0 -37 -349 -47 -905 -3 -170 -8 -359 -11 -420 -5 -90 -4 -108 7 -97
7 6 17 12 22 12 14 0 -1 -133 -16 -142 -9 -5 -9 -18 1 -53 23 -85 9 -146 -16
-72 -14 38 -10 13 13 -88 16 -70 13 -149 -6 -160 -5 -4 -9 -52 -8 -108 0 -83
2 -97 11 -77 10 22 12 16 21 -55 9 -84 28 -118 73 -135 27 -11 589 -13 779 -4
101 5 142 11 148 20 11 19 67 18 81 -2 28 -37 456 -53 491 -17 11 11 16 10 30
-3 14 -14 47 -17 228 -19 117 -1 287 -6 380 -10 152 -7 167 -7 167 8 0 22 33
22 111 0 51 -14 66 -15 95 -4 50 18 1145 24 1419 8 262 -15 323 -14 338 7 11
15 21 15 117 2 72 -10 119 -12 150 -6 25 5 75 9 111 10 53 0 66 3 66 16 0 9
-11 21 -24 27 -12 5 -23 14 -23 19 0 4 86 8 190 8 l190 0 2 1673 c1 919 1
1707 -1 1750 l-3 78 25 -6 c20 -5 30 0 56 32 l31 38 1 -70 c1 -63 2 -67 11
-36 11 41 3 94 -17 111 -8 7 -15 23 -15 36 0 13 -4 24 -10 24 -5 0 -10 -11
-10 -24 0 -41 -12 -86 -22 -80 -5 3 -8 45 -8 92 2 60 -4 104 -16 142 -22 69
-31 235 -13 256 9 11 9 18 1 26 -13 13 -15 442 -3 538 7 51 8 53 16 25 4 -16
11 -35 16 -40 14 -18 29 -136 29 -228 0 -69 -3 -89 -15 -93 -11 -5 -15 -22
-14 -73 1 -66 1 -66 14 -31 12 34 13 34 18 10 19 -81 27 -138 28 -193 0 -44 3
-55 8 -37 4 14 5 81 1 150 -3 69 -2 152 3 185 11 79 14 215 5 215 -5 0 -8 -8
-8 -17 0 -11 -3 -14 -10 -7 -7 7 -30 192 -30 244 0 13 1 13 11 0 7 -11 8 -6 4
20 -4 19 -8 37 -8 40 -2 12 25 80 33 80 16 0 23 217 12 395 -15 231 -19 500
-9 545 6 25 5 31 -2 20 -13 -18 -15 70 -4 135 6 37 7 38 15 15 4 -16 5 -9 2
20 -12 100 -15 245 -5 264 22 46 36 779 15 806 -7 9 -14 71 -17 159 l-5 144
-57 56 c-32 31 -54 50 -50 42 7 -12 -17 -13 -166 -6 -207 9 -219 10 -243 20
-10 5 -77 4 -150 -1 -184 -12 -642 -12 -639 1 1 6 12 13 25 17 13 3 16 7 8 7
-8 1 -25 4 -38 7 -18 5 -21 3 -16 -10z m1269 -86 c21 -22 37 -40 34 -40 -3 0
-23 18 -44 40 -21 22 -37 40 -34 40 3 0 23 -18 44 -40z m-525 13 c0 -1 -36
-15 -80 -32 -67 -26 -93 -31 -170 -31 -51 0 -90 4 -90 10 0 5 34 20 76 33 60
19 97 24 170 23 52 0 94 -2 94 -3z m-3720 -33 c0 -5 7 -10 16 -10 8 0 12 -4 9
-10 -7 -11 -148 -5 -167 7 -9 5 -1 10 22 14 57 10 120 10 120 -1z m2120 -10
c0 -17 -7 -20 -40 -20 -46 0 -52 14 -12 28 41 16 52 14 52 -8z m2128 -133 c4
-33 -35 -238 -48 -251 -7 -7 -10 13 -10 62 0 51 4 72 13 73 10 0 10 2 0 6 -13
5 -19 134 -7 146 13 13 49 -11 52 -36z m-2368 -448 c0 -5 -3 -8 -7 -6 -8 5 -7
-133 1 -180 2 -12 -1 -20 -5 -17 -5 3 -9 14 -9 24 0 11 -10 40 -22 65 -17 35
-33 51 -72 70 -27 14 -57 25 -65 25 -28 0 -3 10 40 16 24 3 46 8 48 10 10 9
91 3 91 -7z m431 -46 c17 -17 17 -24 -10 -148 -31 -143 -38 -162 -60 -186 -21
-22 -91 -14 -91 10 0 38 51 314 61 333 9 17 17 19 47 14 20 -3 44 -13 53 -23z
m-874 -40 c-21 -25 -41 -107 -34 -147 7 -43 42 -119 62 -136 9 -7 14 -19 11
-27 -3 -8 -2 -11 3 -8 5 3 26 -5 45 -19 42 -28 108 -40 154 -27 82 24 163 94
182 159 9 28 9 25 14 -103 1 -35 -9 -45 -46 -45 -15 0 -53 -7 -84 -15 -31 -8
-61 -12 -65 -9 -5 3 -9 0 -9 -5 0 -6 -5 -11 -12 -11 -24 0 -167 -63 -162 -71
3 -5 -2 -6 -11 -2 -10 3 -21 0 -26 -8 -4 -8 -14 -14 -21 -15 -25 -1 -67 -27
-61 -36 3 -6 -4 -5 -16 1 -11 7 -21 8 -21 2 0 -5 -32 -28 -72 -52 -39 -24 -95
-63 -124 -86 -29 -24 -57 -43 -62 -43 -16 0 -227 -213 -258 -260 -16 -25 -32
-47 -35 -50 -3 -3 -24 -37 -45 -77 l-40 -72 -1 41 c-3 62 -30 131 -66 165 -75
72 -284 103 -375 55 -48 -26 -92 -80 -112 -141 -7 -22 -16 -41 -20 -41 -3 0
-5 -35 -5 -77 2 -97 20 -139 87 -195 66 -55 126 -69 216 -51 66 14 162 50 162
62 0 3 14 22 31 41 l30 35 -15 -32 c-9 -18 -16 -39 -16 -48 0 -9 -7 -26 -15
-38 -16 -25 -85 -258 -85 -288 0 -27 -17 -24 -24 4 -9 39 -86 118 -134 138
-50 22 -99 30 -182 31 -69 0 -104 -13 -127 -49 -9 -15 -34 -44 -54 -63 -30
-29 -40 -48 -54 -112 -15 -63 -16 -84 -7 -116 16 -52 64 -116 109 -146 45 -30
189 -61 238 -52 39 8 135 80 142 107 3 10 9 16 14 14 13 -9 31 35 51 125 11
54 16 67 13 35 -6 -57 -19 -362 -19 -445 0 -30 4 -251 9 -491 l8 -437 -109 -6
c-131 -7 -154 -7 -154 -2 0 7 91 47 98 43 4 -2 26 16 50 39 23 24 40 44 36 44
-3 0 9 19 28 42 19 24 33 54 33 69 0 15 -3 25 -6 23 -4 -2 -12 24 -19 59 -6
34 -18 72 -26 84 -16 26 -132 96 -188 113 l-39 13 36 17 c19 10 49 27 65 39
33 23 47 27 36 9 -4 -7 -3 -8 4 -4 6 4 9 13 6 21 -6 14 31 41 39 27 2 -4 2 -1
0 6 -1 7 8 35 22 62 37 74 35 163 -4 217 -16 23 -27 44 -23 49 4 4 2 4 -5 0
-6 -3 -15 0 -20 7 -4 8 -20 22 -35 32 -15 9 -25 22 -21 28 3 5 2 7 -4 4 -5 -3
-33 3 -62 13 -65 25 -153 26 -206 1 -71 -33 -142 -133 -160 -229 -12 -61 20
-134 93 -207 36 -36 78 -73 94 -81 l30 -15 -70 -34 c-38 -18 -73 -38 -76 -44
-4 -6 -15 -11 -24 -11 -20 0 -27 -55 -26 -206 0 -83 2 -95 27 -133 16 -23 48
-56 73 -74 51 -36 47 -42 -43 -50 l-62 -7 -10 53 c-24 120 -34 319 -32 662 1
272 4 361 14 367 7 4 7 8 1 8 -18 0 27 403 53 470 3 8 5 29 4 46 -1 18 2 35 8
39 6 3 11 18 11 32 0 14 13 54 30 89 16 35 53 118 81 184 111 265 315 596 352
573 6 -3 7 -1 3 5 -7 12 133 158 224 235 58 48 181 137 200 145 8 3 21 12 30
19 9 8 40 27 68 44 40 23 50 26 43 12 -66 -117 -53 -196 50 -294 37 -35 55
-59 47 -62 -7 -2 -2 -5 12 -5 14 -1 44 -4 67 -8 61 -9 109 12 169 71 64 65 98
146 88 210 -14 100 -119 194 -216 195 l-33 1 25 14 c14 8 70 28 125 45 55 18
105 33 110 35 6 2 16 4 24 4 11 1 11 -2 -2 -16z m1150 -25 c38 -14 52 -47 35
-81 -6 -12 -23 -51 -38 -87 -39 -95 -75 -163 -93 -177 -16 -11 -69 -7 -85 7
-14 13 92 306 120 335 19 18 19 18 61 3z m-884 -23 c25 -18 37 -78 26 -119
-10 -38 -89 -116 -116 -116 -30 0 -82 44 -98 82 -14 37 -11 98 6 98 4 0 10 9
14 19 13 42 128 67 168 36z m174 -117 c-3 -8 -6 -5 -6 6 -1 11 2 17 5 13 3 -3
4 -12 1 -19z m1033 -41 c0 -45 -157 -271 -196 -281 -26 -7 -84 12 -84 27 0 25
163 281 191 301 19 13 25 13 55 -2 26 -13 34 -23 34 -45z m1300 -9 c0 -15 -4
-30 -10 -33 -6 -4 -10 12 -10 42 0 35 3 44 10 33 5 -8 10 -27 10 -42z m-2951
-9 c45 -47 56 -86 40 -140 -16 -53 -73 -91 -145 -97 -62 -5 -87 9 -110 65 -28
65 -16 116 39 162 77 66 119 68 176 10z m1882 -129 c42 -38 39 -45 -84 -170
-111 -111 -149 -132 -191 -104 -15 9 -26 21 -26 27 0 24 236 277 258 277 6 0
25 -13 43 -30z m-1016 -141 c193 -37 504 -187 602 -290 87 -92 237 -309 292
-424 51 -104 63 -142 94 -290 20 -93 39 -195 41 -225 11 -119 16 -260 9 -260
-9 0 -79 151 -75 163 1 4 -4 7 -10 8 -7 0 -35 26 -62 57 -66 76 -150 148 -208
178 -96 49 -237 48 -331 -3 -58 -32 -144 -123 -205 -216 -158 -244 -253 -651
-239 -1023 4 -126 6 -136 31 -169 20 -26 41 -39 82 -51 50 -14 58 -20 74 -58
10 -22 17 -59 16 -81 -1 -36 -4 -40 -29 -42 -49 -4 -100 -37 -150 -99 -50 -62
-63 -70 -103 -60 -23 6 -24 11 -24 79 0 39 10 167 21 282 19 185 21 285 24
840 2 477 6 681 19 840 9 116 19 357 23 537 6 326 6 328 27 323 12 -2 48 -9
81 -16z m1217 -64 c7 -9 19 -22 27 -31 17 -18 0 -64 -29 -79 -10 -6 -54 -35
-97 -66 -130 -93 -169 -106 -210 -67 -13 12 -23 24 -23 28 0 8 177 148 248
197 53 37 66 39 84 18z m189 -285 c9 -30 9 -43 0 -54 -19 -23 -262 -128 -306
-133 -34 -3 -43 0 -58 22 -10 14 -17 32 -14 39 8 20 303 166 337 166 25 0 31
-5 41 -40z m687 -100 c31 -123 42 -272 22 -285 -14 -9 -12 -98 5 -180 33 -158
37 -188 31 -239 -4 -30 -13 -62 -20 -71 -11 -15 -15 -16 -35 -4 -20 13 -22 21
-21 104 0 50 -2 189 -4 310 -3 129 -2 210 3 195 8 -21 9 -18 10 20 0 32 -2 41
-9 30 -7 -10 -10 17 -10 85 0 102 9 113 28 35z m-3737 -53 c48 -17 66 -33 91
-80 26 -51 20 -92 -23 -158 -87 -137 -205 -136 -274 0 -14 27 -16 50 -12 100
8 91 13 100 71 127 57 27 94 30 147 11z m3147 -86 c8 -4 16 -27 19 -49 6 -41
5 -42 -38 -60 -24 -11 -62 -22 -84 -26 -22 -4 -60 -14 -85 -23 -25 -8 -72 -16
-106 -19 -57 -3 -62 -2 -72 22 -24 51 -18 57 96 93 116 37 231 70 247 70 6 0
16 -3 23 -8z m102 -340 c0 -21 -6 -44 -14 -50 -18 -15 -298 -37 -347 -27 -32
6 -37 10 -42 43 -4 22 -2 40 4 44 9 5 213 31 334 42 49 4 65 -9 65 -52z
m-3442 -231 c47 0 92 -46 92 -93 0 -139 -178 -248 -268 -164 -35 32 -52 71
-52 117 0 50 12 75 59 118 34 31 39 33 86 28 28 -3 65 -6 83 -6z m3316 -4 c67
-3 124 -10 132 -17 8 -6 14 -28 14 -49 0 -30 -5 -39 -25 -48 -14 -6 -37 -9
-52 -7 -16 3 -85 9 -155 14 -150 11 -168 20 -168 78 l0 42 68 -4 c37 -3 120
-7 186 -9z m-788 -62 c35 -14 89 -64 179 -164 32 -36 125 -173 125 -185 0 -3
-4 -3 -10 0 -16 10 -11 -1 7 -16 14 -12 16 -12 9 0 -6 9 -4 12 5 9 19 -6 20
-191 3 -403 -7 -88 -15 -187 -17 -220 -3 -33 -7 -67 -10 -75 -3 -8 -10 -51
-16 -95 -18 -125 -21 -145 -37 -220 -8 -38 -19 -92 -24 -120 -14 -84 -52 -237
-67 -274 -8 -20 -25 -49 -37 -66 -12 -16 -41 -63 -65 -102 -24 -41 -48 -70
-54 -66 -6 3 -7 1 -3 -5 9 -15 -12 -54 -24 -47 -6 4 -7 -1 -3 -11 5 -13 3 -15
-7 -9 -8 5 -11 4 -6 -3 3 -6 -11 -37 -32 -69 -22 -32 -45 -69 -52 -83 -19 -38
-52 -70 -63 -63 -6 3 -7 1 -3 -5 7 -11 -40 -77 -110 -154 -37 -41 -50 -48 -40
-21 4 10 3 14 -1 9 -4 -4 -8 -16 -8 -25 0 -10 -31 -45 -70 -79 -66 -58 -95
-77 -79 -50 4 7 3 8 -5 4 -6 -4 -9 -11 -6 -15 7 -13 -113 -93 -127 -85 -6 4
-8 3 -5 -3 5 -8 -39 -32 -175 -92 -26 -12 -49 -21 -51 -21 -2 0 -4 19 -5 43
-1 23 -4 53 -7 67 -2 14 -1 58 3 98 l7 73 67 29 c37 15 94 46 127 68 33 22 62
37 64 33 2 -3 2 0 0 8 -2 7 14 30 34 51 38 38 41 45 51 88 6 29 -14 52 -43 50
-13 -1 -22 -6 -19 -10 6 -9 -42 -55 -76 -73 -31 -16 -121 -41 -177 -49 l-43
-6 0 64 c0 57 3 67 25 84 16 12 49 23 88 27 34 4 89 13 121 21 33 7 62 11 66
9 4 -2 51 9 106 25 54 15 103 26 109 23 5 -4 7 -3 3 2 -4 4 7 15 25 24 36 18
46 55 27 92 -10 17 -18 20 -43 15 -72 -13 -97 -14 -90 -3 4 6 0 8 -11 4 -24
-10 -102 23 -84 35 10 7 9 8 -5 4 -9 -3 -29 -1 -44 5 -23 8 -25 12 -13 21 13
8 12 9 -2 5 -9 -3 -39 3 -67 14 -61 23 -100 24 -148 4 -62 -26 -66 -23 -59 47
4 35 13 66 19 71 7 4 36 6 65 4 59 -4 66 2 110 89 26 52 60 63 152 50 57 -8
70 -7 94 9 28 19 28 20 24 99 -3 53 -11 93 -23 116 -11 19 -18 39 -17 43 1 5
-1 6 -6 3 -12 -7 -66 71 -79 115 -18 61 -5 367 20 494 16 77 27 111 37 112 8
2 38 -15 65 -37 76 -60 186 -120 221 -120 45 0 120 25 165 55 22 14 45 23 51
19 6 -4 8 -3 5 4 -10 14 71 72 92 65 12 -4 13 -3 3 5 -10 7 2 21 50 57 35 26
72 52 83 57 11 5 31 24 43 42 18 27 21 38 13 60 l-11 26 -364 0 -364 0 12 48
c23 84 89 198 108 186 6 -4 8 -3 5 3 -8 13 22 55 34 47 5 -3 8 0 7 8 -2 8 6
13 19 13 11 0 25 4 29 8 5 4 1 5 -9 1 -10 -3 -17 -1 -17 5 0 10 13 15 32 12 4
0 5 5 2 13 -7 17 17 35 68 51 59 19 108 18 154 -1z m-2652 -459 c25 -19 40
-19 32 0 -3 8 0 15 7 15 14 0 118 -105 135 -137 56 -104 -119 -248 -256 -211
-39 10 -66 61 -77 143 -5 41 -3 55 13 75 10 14 22 33 25 43 4 10 21 24 37 30
17 6 30 19 30 28 0 32 23 38 54 14z m48 -536 c56 -30 108 -127 108 -202 0 -73
-58 -132 -143 -143 -43 -6 -47 -4 -87 36 -23 23 -53 66 -66 95 -23 50 -24 54
-8 91 17 42 76 104 98 104 8 0 16 7 20 15 6 18 49 20 78 4z m3085 -303 c36
-33 46 -50 46 -74 0 -48 -47 -90 -125 -113 -22 -6 -30 -4 -35 8 -6 15 14 200
24 216 11 18 48 3 90 -37z m900 -83 c-2 -16 -4 -5 -4 22 0 28 2 40 4 28 2 -13
2 -35 0 -50z m-838 -398 c32 -16 61 -69 61 -110 0 -34 -34 -91 -63 -106 -11
-7 -53 -15 -91 -20 -55 -6 -76 -4 -93 7 -28 18 -48 81 -39 126 6 33 49 83 91
106 29 16 101 15 134 -3z m-2208 -522 c13 -16 12 -17 -3 -4 -17 13 -22 21 -14
21 2 0 10 -8 17 -17z"/>
<path d="M3893 8276 c-23 -8 -45 -11 -49 -7 -4 3 -5 1 -1 -4 3 -6 -16 -28 -43
-50 -79 -66 -105 -143 -74 -225 24 -64 42 -85 102 -126 91 -62 226 -74 292
-26 38 29 96 109 111 155 7 23 17 47 21 54 5 6 5 14 -1 17 -5 3 -15 28 -22 56
-7 27 -16 47 -21 44 -4 -3 -12 5 -17 19 -11 28 -73 84 -108 98 -35 13 -140 10
-190 -5z m157 -91 c35 -18 80 -71 80 -94 0 -36 -32 -109 -59 -135 -34 -33 -98
-66 -127 -66 -51 0 -124 99 -124 168 0 17 5 43 11 59 14 37 68 93 84 87 7 -3
16 -1 19 4 7 12 75 -2 116 -23z"/>
<path d="M6035 5021 c-3 -5 -2 -12 3 -15 5 -3 9 1 9 9 0 17 -3 19 -12 6z"/>
<path d="M5595 4440 c-16 -7 -17 -9 -3 -9 9 -1 20 4 23 9 7 11 7 11 -20 0z"/>
<path d="M3440 6510 c0 -5 5 -10 11 -10 5 0 7 5 4 10 -3 6 -8 10 -11 10 -2 0
-4 -4 -4 -10z"/>
<path d="M7531 6718 c-1 -21 4 -38 9 -38 12 0 12 27 0 55 -7 16 -9 13 -9 -17z"/>
<path d="M7470 6016 c0 -25 5 -48 10 -51 6 -4 10 11 10 39 0 25 -4 48 -10 51
-6 4 -10 -11 -10 -39z"/>
<path d="M7541 5814 c0 -11 3 -14 6 -6 3 7 2 16 -1 19 -3 4 -6 -2 -5 -13z"/>
<path d="M7541 5624 c0 -11 3 -14 6 -6 3 7 2 16 -1 19 -3 4 -6 -2 -5 -13z"/>
<path d="M7480 5258 c0 -50 11 -83 21 -66 6 9 9 10 9 1 0 -7 7 -10 15 -7 17 7
21 34 5 34 -5 0 -13 14 -18 32 -11 44 -32 48 -32 6z"/>
<path d="M7528 4995 c-2 -19 0 -35 4 -35 4 0 8 16 8 35 0 19 -2 35 -4 35 -2 0
-6 -16 -8 -35z"/>
<path d="M7577 4961 c-9 -58 -6 -69 9 -43 5 9 7 35 4 57 l-6 40 -7 -54z"/>
<path d="M7460 4892 c0 -28 4 -53 10 -57 5 -3 7 15 3 47 -8 70 -13 74 -13 10z"/>
<path d="M7536 4604 c-4 -9 -4 -19 -1 -22 2 -3 7 3 11 12 4 9 4 19 1 22 -2 3
-7 -3 -11 -12z"/>
<path d="M7452 4435 c-7 -15 -8 -34 -3 -47 7 -18 9 -15 14 22 7 53 4 59 -11
25z"/>
<path d="M7511 4444 c0 -11 3 -14 6 -6 3 7 2 16 -1 19 -3 4 -6 -2 -5 -13z"/>
<path d="M7537 4342 c1 -8 3 -18 3 -23 0 -6 5 -7 10 -4 6 3 10 13 10 21 0 8
-4 13 -9 10 -5 -4 -11 -3 -14 1 -2 5 -2 2 0 -5z"/>
<path d="M7441 4324 c0 -11 3 -14 6 -6 3 7 2 16 -1 19 -3 4 -6 -2 -5 -13z"/>
<path d="M7477 4270 c-4 -15 -1 -27 6 -32 16 -10 20 3 9 32 l-9 24 -6 -24z"/>
<path d="M7561 3865 c1 -48 1 -49 9 -15 5 19 4 41 0 50 -6 10 -9 -1 -9 -35z"/>
<path d="M7528 3734 c-5 -4 -8 -21 -8 -38 0 -21 3 -27 11 -19 6 6 9 23 7 38
-2 15 -6 23 -10 19z"/>
<path d="M7452 3355 c0 -16 2 -22 5 -12 2 9 2 23 0 30 -3 6 -5 -1 -5 -18z"/>
<path d="M7484 3265 c0 -49 1 -71 3 -48 2 23 2 64 0 90 -2 26 -3 8 -3 -42z"/>
<path d="M7487 3088 c-3 -23 -2 -49 3 -58 6 -10 9 3 10 43 0 67 -5 74 -13 15z"/>
<path d="M7535 2210 c3 -5 8 -10 11 -10 2 0 4 5 4 10 0 6 -5 10 -11 10 -5 0
-7 -4 -4 -10z"/>
<path d="M7195 1920 c3 -5 12 -7 20 -3 21 7 19 13 -6 13 -11 0 -18 -4 -14 -10z"/>
<path d="M5830 1309 c-230 -81 -410 -239 -457 -399 -45 -155 55 -313 238 -372
76 -25 259 -28 349 -6 l55 13 3 163 2 162 -50 0 -50 0 0 -130 0 -130 -27 -7
c-54 -15 -185 -7 -243 16 -115 43 -174 121 -174 226 0 79 36 146 121 225 68
64 192 131 282 153 54 12 57 17 45 76 -8 36 -17 37 -94 10z"/>
<path d="M325 920 l0 -393 80 6 c243 18 488 154 567 315 43 87 51 197 20 259
-64 124 -233 190 -512 200 l-155 5 0 -392z m275 300 c202 -29 303 -108 303
-235 0 -163 -181 -316 -417 -353 l-56 -9 0 304 0 303 53 0 c28 0 81 -5 117
-10z"/>
<path d="M6276 896 c-97 -178 -176 -327 -176 -332 0 -5 18 -19 39 -31 l39 -22
53 113 53 113 120 7 c65 3 144 6 175 6 l56 0 52 -98 c74 -139 73 -138 109
-119 16 9 35 20 42 25 11 7 -12 53 -100 203 -63 107 -149 254 -192 327 -43 72
-81 132 -86 132 -4 0 -87 -146 -184 -324z m248 55 c36 -66 66 -122 66 -124 0
-6 -250 -20 -256 -14 -4 4 117 257 123 257 1 0 31 -54 67 -119z"/>
<path d="M1308 1189 c-21 -11 -38 -23 -38 -28 0 -8 327 -651 335 -659 1 -2 42
68 90 155 49 87 132 235 187 330 54 95 98 175 98 177 0 7 -81 49 -84 44 -2 -2
-38 -70 -81 -153 -140 -270 -188 -360 -196 -369 -7 -8 -204 382 -246 487 -8
20 -18 37 -22 37 -3 -1 -23 -10 -43 -21z"/>
<path d="M2117 1201 l-98 -6 1 -329 c0 -182 2 -331 3 -332 1 -1 80 -4 175 -8
l172 -7 0 43 0 43 -127 0 -128 0 0 110 0 110 108 3 108 3 -3 36 -3 36 -108 -2
-108 -2 3 113 3 113 123 3 122 3 0 39 0 40 -72 -2 c-40 -1 -117 -4 -171 -7z"/>
<path d="M3335 1196 c-92 -29 -182 -92 -211 -147 -40 -78 -2 -142 124 -207 92
-48 115 -71 115 -114 0 -52 -65 -95 -190 -128 l-41 -10 11 -35 c13 -42 31 -44
114 -14 133 50 208 125 208 210 0 61 -27 91 -138 150 -91 49 -117 73 -117 105
0 48 77 101 173 119 38 7 43 17 31 63 -7 25 -21 26 -79 8z"/>
<path d="M4995 1177 c-76 -41 -162 -127 -207 -206 l-35 -62 -38 65 c-41 70
-118 154 -177 193 l-37 25 -335 1 -336 2 0 -44 0 -43 135 7 136 7 -1 -293 -1
-294 53 -3 53 -3 -4 296 -3 296 133 -7 c153 -7 175 -16 254 -107 91 -104 122
-210 110 -379 l-7 -98 56 0 56 0 -6 93 c-12 174 27 295 128 396 28 27 77 64
109 81 l58 31 -16 37 c-8 20 -16 38 -17 39 -1 1 -28 -13 -61 -30z"/>
<path d="M8058 1203 l-98 -4 0 -333 0 -333 171 -7 c94 -3 174 -4 178 -2 3 3 5
22 3 43 l-4 38 -124 -3 -124 -4 0 116 0 116 106 0 105 0 -3 36 -3 37 -102 -2
-103 -2 0 115 0 116 120 0 120 0 0 40 0 40 -72 -2 c-40 -1 -117 -4 -170 -5z"/>
<path d="M9576 1178 c-77 -42 -167 -134 -208 -213 l-32 -64 -31 58 c-17 32
-49 79 -70 105 -38 47 -152 136 -174 136 -10 0 -41 -50 -41 -69 0 -5 19 -20
43 -34 52 -31 124 -106 160 -167 43 -74 58 -151 55 -280 l-3 -115 54 -3 54 -3
-7 93 c-12 186 27 301 138 405 35 33 84 69 110 79 38 16 45 22 40 39 -11 34
-23 65 -26 65 -2 0 -29 -15 -62 -32z"/>
<path d="M2553 1193 c-10 -4 -13 -80 -13 -334 l0 -329 50 0 50 0 0 295 0 295
43 0 c62 0 144 -27 162 -53 43 -62 3 -134 -118 -212 -13 -8 5 -36 114 -170 72
-88 135 -162 141 -164 11 -4 68 48 68 61 0 5 -49 63 -110 129 -60 66 -110 123
-110 127 1 4 18 19 40 34 80 55 119 153 86 216 -20 39 -86 78 -151 91 -58 11
-234 21 -252 14z"/>
<path d="M3660 1192 c-6 -2 -10 -119 -10 -333 l0 -329 50 0 49 0 3 329 3 329
-42 4 c-24 2 -47 2 -53 0z"/>
<path d="M7478 1192 l-28 -3 0 -328 0 -328 172 -7 c97 -3 175 -3 181 3 4 4 7
24 5 42 l-3 34 -129 3 -128 3 4 289 c2 160 1 291 -2 291 -14 4 -48 4 -72 1z"/>
<path d="M8500 863 l0 -333 53 0 52 0 -3 297 -4 296 70 -6 c108 -9 157 -41
155 -102 -1 -48 -30 -91 -90 -132 -29 -20 -53 -38 -53 -41 0 -8 261 -322 268
-322 4 0 22 14 40 31 l33 29 -115 127 -116 127 56 50 c62 55 84 95 84 155 0
87 -85 136 -261 152 -61 5 -124 8 -140 7 l-29 -2 0 -333z"/>
<path d="M1118 863 l2 -328 48 -3 47 -3 0 331 0 330 -50 0 -50 0 3 -327z"/>
<path d="M6948 863 c-2 -181 -3 -329 -3 -329 0 -1 80 -4 178 -8 l177 -7 0 45
0 46 -125 0 -126 0 3 290 3 290 -52 0 -52 0 -3 -327z"/>
</g>
</svg>
